<mxfile host="Electron" agent="Mozilla/5.0 (Windows NT 10.0; Win64; x64) AppleWebKit/537.36 (KHTML, like Gecko) draw.io/24.7.8 Chrome/128.0.6613.36 Electron/32.0.1 Safari/537.36" version="24.7.8">
  <diagram name="Page-1" id="Kca7W63nBDdjK7yRtkMa">
    <mxGraphModel dx="780" dy="513" grid="1" gridSize="10" guides="1" tooltips="1" connect="1" arrows="1" fold="1" page="1" pageScale="1" pageWidth="850" pageHeight="1100" math="0" shadow="0">
      <root>
        <mxCell id="0" />
        <mxCell id="1" parent="0" />
        <mxCell id="dytxaIj40-TbLWgSjJ2O-1" value="Staf" style="rounded=0;whiteSpace=wrap;html=1;" vertex="1" parent="1">
          <mxGeometry x="120" y="60" width="90" height="30" as="geometry" />
        </mxCell>
        <mxCell id="dytxaIj40-TbLWgSjJ2O-2" value="Name" style="ellipse;whiteSpace=wrap;html=1;" vertex="1" parent="1">
          <mxGeometry x="84" y="120" width="70" height="40" as="geometry" />
        </mxCell>
        <mxCell id="dytxaIj40-TbLWgSjJ2O-3" value="Password" style="ellipse;whiteSpace=wrap;html=1;" vertex="1" parent="1">
          <mxGeometry x="180" y="120" width="70" height="40" as="geometry" />
        </mxCell>
        <mxCell id="dytxaIj40-TbLWgSjJ2O-6" value="Admin" style="rounded=0;whiteSpace=wrap;html=1;" vertex="1" parent="1">
          <mxGeometry x="450" y="60" width="90" height="30" as="geometry" />
        </mxCell>
        <mxCell id="dytxaIj40-TbLWgSjJ2O-9" value="Password" style="ellipse;whiteSpace=wrap;html=1;" vertex="1" parent="1">
          <mxGeometry x="460" y="120" width="70" height="40" as="geometry" />
        </mxCell>
        <mxCell id="dytxaIj40-TbLWgSjJ2O-10" value="Name" style="ellipse;whiteSpace=wrap;html=1;" vertex="1" parent="1">
          <mxGeometry x="369" y="120" width="70" height="40" as="geometry" />
        </mxCell>
        <mxCell id="dytxaIj40-TbLWgSjJ2O-11" value="Password" style="ellipse;whiteSpace=wrap;html=1;" vertex="1" parent="1">
          <mxGeometry x="552" y="118" width="70" height="40" as="geometry" />
        </mxCell>
        <mxCell id="dytxaIj40-TbLWgSjJ2O-13" value="" style="endArrow=none;html=1;rounded=0;entryX=0.5;entryY=1;entryDx=0;entryDy=0;exitX=1;exitY=0;exitDx=0;exitDy=0;" edge="1" parent="1" source="dytxaIj40-TbLWgSjJ2O-2" target="dytxaIj40-TbLWgSjJ2O-1">
          <mxGeometry width="50" height="50" relative="1" as="geometry">
            <mxPoint x="120" y="140" as="sourcePoint" />
            <mxPoint x="170" y="90" as="targetPoint" />
          </mxGeometry>
        </mxCell>
        <mxCell id="dytxaIj40-TbLWgSjJ2O-14" value="" style="endArrow=none;html=1;rounded=0;entryX=0.5;entryY=1;entryDx=0;entryDy=0;exitX=0;exitY=0;exitDx=0;exitDy=0;" edge="1" parent="1" source="dytxaIj40-TbLWgSjJ2O-3" target="dytxaIj40-TbLWgSjJ2O-1">
          <mxGeometry width="50" height="50" relative="1" as="geometry">
            <mxPoint x="140" y="136" as="sourcePoint" />
            <mxPoint x="167" y="101" as="targetPoint" />
          </mxGeometry>
        </mxCell>
        <mxCell id="dytxaIj40-TbLWgSjJ2O-15" value="" style="endArrow=none;html=1;rounded=0;entryX=0.5;entryY=1;entryDx=0;entryDy=0;exitX=1;exitY=0;exitDx=0;exitDy=0;" edge="1" parent="1" source="dytxaIj40-TbLWgSjJ2O-10" target="dytxaIj40-TbLWgSjJ2O-6">
          <mxGeometry width="50" height="50" relative="1" as="geometry">
            <mxPoint x="420" y="150" as="sourcePoint" />
            <mxPoint x="470" y="100" as="targetPoint" />
          </mxGeometry>
        </mxCell>
        <mxCell id="dytxaIj40-TbLWgSjJ2O-16" value="" style="endArrow=none;html=1;rounded=0;entryX=0.5;entryY=1;entryDx=0;entryDy=0;exitX=0.5;exitY=0;exitDx=0;exitDy=0;" edge="1" parent="1" source="dytxaIj40-TbLWgSjJ2O-9" target="dytxaIj40-TbLWgSjJ2O-6">
          <mxGeometry width="50" height="50" relative="1" as="geometry">
            <mxPoint x="439" y="136" as="sourcePoint" />
            <mxPoint x="505" y="100" as="targetPoint" />
          </mxGeometry>
        </mxCell>
        <mxCell id="dytxaIj40-TbLWgSjJ2O-17" value="" style="endArrow=none;html=1;rounded=0;entryX=0.5;entryY=1;entryDx=0;entryDy=0;exitX=0;exitY=0;exitDx=0;exitDy=0;" edge="1" parent="1" source="dytxaIj40-TbLWgSjJ2O-11" target="dytxaIj40-TbLWgSjJ2O-6">
          <mxGeometry width="50" height="50" relative="1" as="geometry">
            <mxPoint x="505" y="130" as="sourcePoint" />
            <mxPoint x="505" y="100" as="targetPoint" />
          </mxGeometry>
        </mxCell>
        <mxCell id="dytxaIj40-TbLWgSjJ2O-20" value="Catagory" style="rounded=0;whiteSpace=wrap;html=1;" vertex="1" parent="1">
          <mxGeometry x="464" y="250" width="90" height="30" as="geometry" />
        </mxCell>
        <mxCell id="dytxaIj40-TbLWgSjJ2O-21" value="Staf" style="rounded=0;whiteSpace=wrap;html=1;" vertex="1" parent="1">
          <mxGeometry x="122" y="250" width="90" height="30" as="geometry" />
        </mxCell>
        <mxCell id="dytxaIj40-TbLWgSjJ2O-22" value="item_code" style="ellipse;whiteSpace=wrap;html=1;fontStyle=4" vertex="1" parent="1">
          <mxGeometry x="344" y="322" width="70" height="40" as="geometry" />
        </mxCell>
        <mxCell id="dytxaIj40-TbLWgSjJ2O-23" value="item_name" style="ellipse;whiteSpace=wrap;html=1;fontStyle=4" vertex="1" parent="1">
          <mxGeometry x="384" y="381" width="70" height="40" as="geometry" />
        </mxCell>
        <mxCell id="dytxaIj40-TbLWgSjJ2O-24" value="item_price" style="ellipse;whiteSpace=wrap;html=1;" vertex="1" parent="1">
          <mxGeometry x="474" y="402" width="70" height="40" as="geometry" />
        </mxCell>
        <mxCell id="dytxaIj40-TbLWgSjJ2O-25" value="item_stock" style="ellipse;whiteSpace=wrap;html=1;fillStyle=auto;fillColor=none;dashed=1;" vertex="1" parent="1">
          <mxGeometry x="569" y="381" width="70" height="40" as="geometry" />
        </mxCell>
        <mxCell id="dytxaIj40-TbLWgSjJ2O-26" value="catagory_code" style="ellipse;whiteSpace=wrap;html=1;fontStyle=4" vertex="1" parent="1">
          <mxGeometry x="594" y="322" width="90" height="40" as="geometry" />
        </mxCell>
        <mxCell id="dytxaIj40-TbLWgSjJ2O-27" value="catagory_code" style="ellipse;whiteSpace=wrap;html=1;fontStyle=4" vertex="1" parent="1">
          <mxGeometry x="192" y="322" width="90" height="40" as="geometry" />
        </mxCell>
        <mxCell id="dytxaIj40-TbLWgSjJ2O-28" value="catagory_name" style="ellipse;whiteSpace=wrap;html=1;" vertex="1" parent="1">
          <mxGeometry x="68" y="322" width="90" height="40" as="geometry" />
        </mxCell>
        <mxCell id="dytxaIj40-TbLWgSjJ2O-29" value="Has in" style="rhombus;whiteSpace=wrap;html=1;" vertex="1" parent="1">
          <mxGeometry x="299" y="230.5" width="70" height="69" as="geometry" />
        </mxCell>
        <mxCell id="dytxaIj40-TbLWgSjJ2O-30" value="" style="endArrow=none;html=1;rounded=0;entryX=0.5;entryY=1;entryDx=0;entryDy=0;exitX=1;exitY=0.5;exitDx=0;exitDy=0;" edge="1" parent="1" source="dytxaIj40-TbLWgSjJ2O-22" target="dytxaIj40-TbLWgSjJ2O-20">
          <mxGeometry width="50" height="50" relative="1" as="geometry">
            <mxPoint x="684" y="290" as="sourcePoint" />
            <mxPoint x="734" y="240" as="targetPoint" />
          </mxGeometry>
        </mxCell>
        <mxCell id="dytxaIj40-TbLWgSjJ2O-31" value="" style="endArrow=none;html=1;rounded=0;exitX=1;exitY=0;exitDx=0;exitDy=0;entryX=0.5;entryY=1;entryDx=0;entryDy=0;" edge="1" parent="1" source="dytxaIj40-TbLWgSjJ2O-23" target="dytxaIj40-TbLWgSjJ2O-20">
          <mxGeometry width="50" height="50" relative="1" as="geometry">
            <mxPoint x="424" y="352" as="sourcePoint" />
            <mxPoint x="504" y="280" as="targetPoint" />
          </mxGeometry>
        </mxCell>
        <mxCell id="dytxaIj40-TbLWgSjJ2O-32" value="" style="endArrow=none;html=1;rounded=0;exitX=0.5;exitY=0;exitDx=0;exitDy=0;entryX=0.5;entryY=1;entryDx=0;entryDy=0;" edge="1" parent="1" source="dytxaIj40-TbLWgSjJ2O-24" target="dytxaIj40-TbLWgSjJ2O-20">
          <mxGeometry width="50" height="50" relative="1" as="geometry">
            <mxPoint x="429" y="391" as="sourcePoint" />
            <mxPoint x="519" y="290" as="targetPoint" />
          </mxGeometry>
        </mxCell>
        <mxCell id="dytxaIj40-TbLWgSjJ2O-33" value="" style="endArrow=none;html=1;rounded=0;exitX=0;exitY=0;exitDx=0;exitDy=0;entryX=0.5;entryY=1;entryDx=0;entryDy=0;" edge="1" parent="1" source="dytxaIj40-TbLWgSjJ2O-25" target="dytxaIj40-TbLWgSjJ2O-20">
          <mxGeometry width="50" height="50" relative="1" as="geometry">
            <mxPoint x="523" y="412" as="sourcePoint" />
            <mxPoint x="519" y="290" as="targetPoint" />
          </mxGeometry>
        </mxCell>
        <mxCell id="dytxaIj40-TbLWgSjJ2O-34" value="" style="endArrow=none;html=1;rounded=0;exitX=0;exitY=0.5;exitDx=0;exitDy=0;entryX=0.5;entryY=1;entryDx=0;entryDy=0;" edge="1" parent="1" source="dytxaIj40-TbLWgSjJ2O-26" target="dytxaIj40-TbLWgSjJ2O-20">
          <mxGeometry width="50" height="50" relative="1" as="geometry">
            <mxPoint x="594" y="397" as="sourcePoint" />
            <mxPoint x="519" y="290" as="targetPoint" />
          </mxGeometry>
        </mxCell>
        <mxCell id="dytxaIj40-TbLWgSjJ2O-42" value="" style="endArrow=none;html=1;rounded=0;exitX=0.5;exitY=0;exitDx=0;exitDy=0;entryX=0.5;entryY=1;entryDx=0;entryDy=0;" edge="1" parent="1" source="dytxaIj40-TbLWgSjJ2O-28" target="dytxaIj40-TbLWgSjJ2O-21">
          <mxGeometry width="50" height="50" relative="1" as="geometry">
            <mxPoint x="398" y="290" as="sourcePoint" />
            <mxPoint x="448" y="240" as="targetPoint" />
          </mxGeometry>
        </mxCell>
        <mxCell id="dytxaIj40-TbLWgSjJ2O-43" value="" style="endArrow=none;html=1;rounded=0;exitX=0.5;exitY=0;exitDx=0;exitDy=0;entryX=0.5;entryY=1;entryDx=0;entryDy=0;" edge="1" parent="1" source="dytxaIj40-TbLWgSjJ2O-27" target="dytxaIj40-TbLWgSjJ2O-21">
          <mxGeometry width="50" height="50" relative="1" as="geometry">
            <mxPoint x="123" y="332" as="sourcePoint" />
            <mxPoint x="177" y="290" as="targetPoint" />
          </mxGeometry>
        </mxCell>
        <mxCell id="dytxaIj40-TbLWgSjJ2O-45" value="" style="endArrow=none;html=1;rounded=0;exitX=1;exitY=0.5;exitDx=0;exitDy=0;entryX=0;entryY=0.5;entryDx=0;entryDy=0;" edge="1" parent="1" source="dytxaIj40-TbLWgSjJ2O-21" target="dytxaIj40-TbLWgSjJ2O-29">
          <mxGeometry width="50" height="50" relative="1" as="geometry">
            <mxPoint x="240" y="290" as="sourcePoint" />
            <mxPoint x="290" y="240" as="targetPoint" />
          </mxGeometry>
        </mxCell>
        <mxCell id="dytxaIj40-TbLWgSjJ2O-46" value="" style="endArrow=none;html=1;rounded=0;exitX=1;exitY=0.5;exitDx=0;exitDy=0;entryX=0;entryY=0.5;entryDx=0;entryDy=0;" edge="1" parent="1" source="dytxaIj40-TbLWgSjJ2O-29" target="dytxaIj40-TbLWgSjJ2O-20">
          <mxGeometry width="50" height="50" relative="1" as="geometry">
            <mxPoint x="222" y="275" as="sourcePoint" />
            <mxPoint x="309" y="275" as="targetPoint" />
          </mxGeometry>
        </mxCell>
      </root>
    </mxGraphModel>
  </diagram>
</mxfile>
